<svg width="179" height="40" viewBox="0 0 179 40" fill="none" xmlns="http://www.w3.org/2000/svg">
<path fillRule="evenodd" clipRule="evenodd" d="M94.6204 11.2955C95.3401 11.2955 95.9556 11.0549 96.467 10.5739C96.9784 10.0928 97.234 9.51516 97.234 8.84092C97.234 8.17425 96.9784 7.60039 96.467 7.11933C95.9556 6.63827 95.3363 6.39774 94.609 6.39774C93.8969 6.39774 93.2833 6.63827 92.7681 7.11933C92.253 7.60039 91.9954 8.17425 91.9954 8.84092C91.9954 9.51516 92.253 10.0928 92.7681 10.5739C93.2833 11.0549 93.9007 11.2955 94.6204 11.2955ZM63.7273 30.2671C62.2803 30.9754 60.5947 31.3296 58.6704 31.3296C56.7386 31.3296 55.0492 30.9754 53.6023 30.2671C52.1553 29.5587 51.0303 28.5682 50.2273 27.2955C49.4242 26.0227 49.0227 24.5379 49.0227 22.8409V7.72728H53.9432V22.4205C53.9432 23.3068 54.1382 24.0947 54.5284 24.7841C54.9185 25.4735 55.4697 26.0152 56.1818 26.4091C56.8939 26.803 57.7235 27 58.6704 27C59.625 27 60.4564 26.803 61.1648 26.4091C61.8731 26.0152 62.4223 25.4735 62.8125 24.7841C63.2026 24.0947 63.3977 23.3068 63.3977 22.4205V7.72728H68.3182V22.8409C68.3182 24.5379 67.9148 26.0227 67.1079 27.2955C66.3011 28.5682 65.1742 29.5587 63.7273 30.2671ZM77.1182 20.9091V31H72.2773V13.5455H76.8909V16.625H77.0954C77.4818 15.6099 78.1295 14.8049 79.0386 14.2102C79.9477 13.6155 81.05 13.3182 82.3454 13.3182C83.5576 13.3182 84.6144 13.5833 85.5159 14.1136C86.4174 14.6439 87.1182 15.3996 87.6182 16.3807C88.1182 17.3618 88.3682 18.5303 88.3682 19.8864V31H83.5273V20.75C83.5348 19.6818 83.2621 18.8466 82.7091 18.2443C82.1561 17.6421 81.3947 17.3409 80.425 17.3409C79.7735 17.3409 79.1996 17.4811 78.7034 17.7614C78.2072 18.0417 77.8208 18.4489 77.5443 18.983C77.2678 19.5171 77.1257 20.1591 77.1182 20.9091ZM97.0181 13.5455V31H92.1772V13.5455H97.0181ZM107.864 31.2386C108.492 31.2159 109.026 31.1534 109.466 31.0511C109.905 30.9489 110.246 30.8599 110.489 30.7841L109.727 27.1818C109.606 27.2046 109.432 27.2367 109.204 27.2784C108.977 27.3201 108.75 27.3409 108.523 27.3409C108.197 27.3409 107.911 27.2917 107.665 27.1932C107.418 27.0947 107.227 26.9224 107.091 26.6761C106.954 26.4299 106.886 26.0833 106.886 25.6364L106.886 17.182L110.17 17.1818V13.5455L106.886 13.546L106.886 9.36364H102.045L102.045 13.546L99.659 13.5455V17.1818L102.045 17.182L102.045 26.2727C102.038 27.3127 102.235 28.1898 102.635 28.9042L102.761 29.1136C103.246 29.8636 103.926 30.4167 104.801 30.7727C105.579 31.0892 106.472 31.2471 107.48 31.2464C107.606 31.2463 107.734 31.2437 107.864 31.2386ZM119.37 36.9716C118.522 37.3542 117.499 37.5455 116.302 37.5455C115.688 37.5455 115.115 37.4981 114.581 37.4034C114.046 37.3087 113.605 37.1894 113.257 37.0455L114.348 33.4318C114.916 33.6061 115.429 33.7008 115.887 33.7159C116.346 33.7311 116.743 33.625 117.081 33.3977C117.418 33.1705 117.692 32.7841 117.904 32.2386L118.188 31.5L111.927 13.5455H117.018L120.632 26.3636H120.814L124.461 13.5455L129.586 13.5682L122.802 32.8864C122.476 33.8258 122.035 34.6458 121.478 35.3466C120.921 36.0474 120.219 36.589 119.37 36.9716Z" fill="#11142D"/>
<path d="M136.605 31V25.9844H131.589V31H136.605Z" fill="#6C5DD3"/>
<path fillRule="evenodd" clipRule="evenodd" d="M16.3189 2.3094C18.7941 0.880339 21.8437 0.880339 24.3189 2.3094L33.6394 7.6906C36.1146 9.11966 37.6394 11.7607 37.6394 14.6188V25.3812C37.6394 28.2393 36.1146 30.8803 33.6394 32.3094L24.3189 37.6906C21.8437 39.1197 18.7941 39.1197 16.3189 37.6906L6.9984 32.3094C4.52319 30.8803 2.9984 28.2393 2.9984 25.3812V14.6188C2.9984 11.7607 4.52319 9.11966 6.9984 7.6906L16.3189 2.3094Z" fill="url(#paint0_linear_235_2264)"/>
<path fillRule="evenodd" clipRule="evenodd" d="M18.5843 18.5124C19.6154 17.9124 20.887 17.9026 21.9272 18.4866L28.9404 22.4239C29.5136 22.7456 29.5136 23.5707 28.9404 23.8925L21.9272 27.8297C20.887 28.4137 19.6154 28.4039 18.5843 27.804L11.8503 23.8861C11.2921 23.5613 11.2921 22.7551 11.8503 22.4303L18.5843 18.5124Z" fill="white"/>
<g opacity="0.900359" filter="url(#filter0_b_235_2264)">
<path fillRule="evenodd" clipRule="evenodd" d="M18.5843 18.4167C19.6154 17.8168 20.887 17.807 21.9272 18.391L28.9404 22.3282C29.5136 22.65 29.5136 23.4751 28.9404 23.7968L21.9272 27.7341C20.887 28.3181 19.6154 28.3083 18.5843 27.7084L11.8503 23.7904C11.2921 23.4657 11.2921 22.6594 11.8503 22.3347L18.5843 18.4167Z" fill="url(#paint1_linear_235_2264)"/>
</g>
<path fillRule="evenodd" clipRule="evenodd" d="M18.5843 15.023C19.6154 14.4231 20.887 14.4133 21.9272 14.9973L28.9404 18.9346C29.5136 19.2563 29.5136 20.0814 28.9404 20.4032L21.9272 24.3404C20.887 24.9244 19.6154 24.9146 18.5843 24.3147L11.8503 20.3967C11.2921 20.072 11.2921 19.2657 11.8503 18.941L18.5843 15.023Z" fill="white"/>
<g filter="url(#filter1_b_235_2264)">
<path fillRule="evenodd" clipRule="evenodd" d="M18.5843 14.908C19.6154 14.3081 20.887 14.2983 21.9272 14.8823L28.9404 18.8195C29.5136 19.1413 29.5136 19.9664 28.9404 20.2881L21.9272 24.2254C20.887 24.8094 19.6154 24.7996 18.5843 24.1997L11.8503 20.2817C11.2921 19.957 11.2921 19.1507 11.8503 18.826L18.5843 14.908Z" fill="url(#paint2_linear_235_2264)"/>
</g>
<path fillRule="evenodd" clipRule="evenodd" d="M18.5843 11.3993C19.6154 10.7994 20.887 10.7896 21.9272 11.3736L28.9404 15.3108C29.5136 15.6326 29.5136 16.4577 28.9404 16.7794L21.9272 20.7167C20.887 21.3007 19.6154 21.2909 18.5843 20.691L11.8503 16.773C11.2921 16.4483 11.2921 15.642 11.8503 15.3173L18.5843 11.3993Z" fill="white"/>
<defs>
<filter id="filter0_b_235_2264" x="-15.7512" y="-9.22304" width="72.3042" height="64.5711" filterUnits="userSpaceOnUse" color-interpolation-filters="sRGB">
<feFlood flood-opacity="0" result="BackgroundImageFix"/>
<feGaussianBlur in="BackgroundImageFix" stdDeviation="13.5914"/>
<feComposite in2="SourceAlpha" operator="in" result="effect1_backgroundBlur_235_2264"/>
<feBlend mode="normal" in="SourceGraphic" in2="effect1_backgroundBlur_235_2264" result="shape"/>
</filter>
<filter id="filter1_b_235_2264" x="-15.7512" y="-12.7317" width="72.3042" height="64.5711" filterUnits="userSpaceOnUse" color-interpolation-filters="sRGB">
<feFlood flood-opacity="0" result="BackgroundImageFix"/>
<feGaussianBlur in="BackgroundImageFix" stdDeviation="13.5914"/>
<feComposite in2="SourceAlpha" operator="in" result="effect1_backgroundBlur_235_2264"/>
<feBlend mode="normal" in="SourceGraphic" in2="effect1_backgroundBlur_235_2264" result="shape"/>
</filter>
<linearGradient id="paint0_linear_235_2264" x1="22.5218" y1="-16.5631" x2="-10.6043" y2="19.0311" gradientUnits="userSpaceOnUse">
<stop stop-color="#32C5FF"/>
<stop offset="0.533966" stop-color="#B620E0"/>
<stop offset="1" stop-color="#FFAA12"/>
</linearGradient>
<linearGradient id="paint1_linear_235_2264" x1="22.1303" y1="12.1722" x2="10.1741" y2="18.5838" gradientUnits="userSpaceOnUse">
<stop stop-color="white" stop-opacity="0.475466"/>
<stop offset="1" stop-color="white" stop-opacity="0.272734"/>
</linearGradient>
<linearGradient id="paint2_linear_235_2264" x1="24.1488" y1="12.9328" x2="14.4511" y2="18.6039" gradientUnits="userSpaceOnUse">
<stop stop-color="white" stop-opacity="0.200771"/>
<stop offset="1" stop-color="white" stop-opacity="0.697855"/>
</linearGradient>
</defs>
</svg>
